<?xml version="1.0" standalone="no"?><!DOCTYPE svg PUBLIC "-//W3C//DTD SVG 1.1//EN" "http://www.w3.org/Graphics/SVG/1.1/DTD/svg11.dtd"><svg t="1566546980821" class="icon" viewBox="0 0 1027 1024" version="1.1" xmlns="http://www.w3.org/2000/svg" p-id="7619" xmlns:xlink="http://www.w3.org/1999/xlink" width="200.5859375" height="200"><defs><style type="text/css"></style></defs><path d="M806.663246 733.800537c1.963083 1.491943 3.926167 3.140933 5.732203 4.94697l193.795583 193.795583a51.746876 51.746876 0 1 1-73.105222 73.105222L739.290227 811.931252a52.139492 52.139492 0 0 1-4.94697-5.732203 452.294392 452.294392 0 1 1 72.319989-72.319989z m-392.61666-320.375194V310.167161a51.668352 51.668352 0 1 1 103.336705 0v103.415228H620.877042a51.668352 51.668352 0 1 1 0 103.336705H517.383291V620.334322a51.668352 51.668352 0 1 1-103.336705 0V516.840571H310.631358a51.668352 51.668352 0 1 1 0-103.336705h103.415228z m38.712003 387.669689a348.879164 348.879164 0 1 0 0-697.679804 348.879164 348.879164 0 1 0 0 697.679804z" p-id="7620" fill="#ffffff"></path></svg>