<?xml version="1.0" standalone="no"?><!DOCTYPE svg PUBLIC "-//W3C//DTD SVG 1.1//EN" "http://www.w3.org/Graphics/SVG/1.1/DTD/svg11.dtd"><svg t="1566547081214" class="icon" viewBox="0 0 1024 1024" version="1.1" xmlns="http://www.w3.org/2000/svg" p-id="10738" xmlns:xlink="http://www.w3.org/1999/xlink" width="200" height="200"><defs><style type="text/css"></style></defs><path d="M967.68 191.367529h-247.024941l-0.240941-12.769882C718.004706 79.811765 627.651765 0.542118 515.975529 0.542118c-111.616 0-202.029176 79.269647-204.257882 178.055529l-0.301176 12.769882H42.646588c-24.515765 0-42.465882 16.143059-42.465882 36.74353 0 20.660706 17.950118 36.864 42.465882 36.864h104.809412v572.476235c0 141.191529 20.359529 177.754353 141.552941 177.754353h432.308706c121.675294 0 141.552941-35.478588 141.552941-177.754353V264.975059h104.809412c24.515765 0 42.465882-16.203294 42.465882-36.803765 0-19.817412-19.456-36.743529-42.465882-36.743529zM513.626353 67.644235c67.584 0 123.843765 46.802824 126.554353 107.821177l0.662588 13.733647H385.686588l1.325177-14.336c5.601882-59.934118 60.717176-107.218824 126.554353-107.218824h0.060235zM293.767529 948.103529c-60.114824 0-73.366588-28.792471-73.366588-110.652235V264.975059h569.524706v583.499294c0.301176 39.514353-0.903529 53.428706-8.432941 68.788706-10.541176 21.022118-31.442824 30.840471-64.933647 30.84047H293.827765z" p-id="10739" ></path><path d="M405.202824 403.817412c-27.828706 0-48.067765 24.816941-48.067765 54.272v307.742117c0 29.394824 20.239059 54.332235 48.007529 54.332236 27.828706 0 48.067765-24.877176 48.067765-54.332236V458.089412c0-29.394824-22.708706-54.272-48.067765-54.272h0.060236z m199.740235 0c-27.768471 0-48.007529 24.816941-48.00753 54.272v307.742117c0 29.394824 22.708706 54.332235 48.00753 54.332236 27.828706 0 48.067765-24.877176 48.067765-54.332236V458.089412c2.529882-29.394824-20.239059-54.272-48.067765-54.272z" p-id="10740" ></path></svg>