<?xml version="1.0" standalone="no"?><!DOCTYPE svg PUBLIC "-//W3C//DTD SVG 1.1//EN" "http://www.w3.org/Graphics/SVG/1.1/DTD/svg11.dtd"><svg t="1567056281447" class="icon" viewBox="0 0 1024 1024" version="1.1" xmlns="http://www.w3.org/2000/svg" p-id="5953" xmlns:xlink="http://www.w3.org/1999/xlink" width="200" height="200"><defs><style type="text/css"></style></defs><path d="M1011.342027 767.964839h-102.420315a12.798633 12.798633 0 0 0-12.798633 12.798633v51.210157H128.017596v-51.210157a12.783005 12.783005 0 0 0-3.750515-9.048118 12.845514 12.845514 0 0 0-9.048117-3.750515H12.798648a12.845514 12.845514 0 0 0-9.048117 3.750515 12.783005 12.783005 0 0 0-3.750515 9.048118v230.437895a12.751751 12.751751 0 0 0 3.750515 9.048118 12.783005 12.783005 0 0 0 9.048117 3.750515h102.420316a12.783005 12.783005 0 0 0 9.048117-3.750515 12.751751 12.751751 0 0 0 3.750515-9.048118v-51.210157h768.105483v51.210157a12.798633 12.798633 0 0 0 12.798633 12.798633h102.420315a12.798633 12.798633 0 0 0 12.798633-12.798633V780.763472a12.798633 12.798633 0 0 0-12.798633-12.798633z m-123.548216-576.079113a31.988768 31.988768 0 0 0 0-44.803027L752.103301 9.470051A32.004395 32.004395 0 0 0 729.381431 0a31.973141 31.973141 0 0 0-22.72187 9.470051L322.606819 393.522792 503.194119 575.938468zM231.70371 700.096144l180.509164-34.535993L231.70371 484.441528l-39.677324 177.274345a32.645108 32.645108 0 0 0 9.251271 30.144765 32.660735 32.660735 0 0 0 30.426053 8.235506z m0 0" p-id="5954"></path></svg>