<?xml version="1.0" standalone="no"?><!DOCTYPE svg PUBLIC "-//W3C//DTD SVG 1.1//EN" "http://www.w3.org/Graphics/SVG/1.1/DTD/svg11.dtd"><svg t="1566547105288" class="icon" viewBox="0 0 1024 1024" version="1.1" xmlns="http://www.w3.org/2000/svg" p-id="11551" xmlns:xlink="http://www.w3.org/1999/xlink" width="200" height="200"><defs><style type="text/css"></style></defs><path d="M802.133333 819.2H512c-34.133333 0-68.266667-25.6-68.266667-68.266667 0-34.133333 25.6-68.266667 68.266667-68.266666h290.133333l-85.333333-85.333334c-17.066667-17.066667-17.066667-59.733333 8.533333-85.333333s59.733333-25.6 85.333334 0l187.733333 196.266667c17.066667 8.533333 25.6 25.6 25.6 42.666666s-8.533333 42.666667-25.6 51.2l-187.733333 196.266667c-17.066667 17.066667-42.666667 25.6-59.733334 17.066667s-42.666667-25.6-42.666666-51.2c-8.533333-25.6 0-51.2 17.066666-59.733334l76.8-85.333333z" fill="#ffffff" p-id="11552"></path><path d="M68.266667 1024H256c34.133333 0 68.266667-25.6 68.266667-68.266667 0-34.133333-25.6-68.266667-68.266667-68.266666H128V136.533333h768v247.466667c0 34.133333 25.6 68.266667 68.266667 68.266667s59.733333-34.133333 59.733333-76.8V68.266667c0-42.666667-25.6-68.266667-68.266667-68.266667H68.266667C25.6 0 0 25.6 0 68.266667v887.466666c0 34.133333 25.6 68.266667 68.266667 68.266667z" fill="#ffffff" p-id="11553"></path></svg>