<?xml version="1.0" standalone="no"?><!DOCTYPE svg PUBLIC "-//W3C//DTD SVG 1.1//EN" "http://www.w3.org/Graphics/SVG/1.1/DTD/svg11.dtd"><svg t="1566542097222" class="icon" viewBox="0 0 1024 1024" version="1.1" xmlns="http://www.w3.org/2000/svg" p-id="2327" xmlns:xlink="http://www.w3.org/1999/xlink" width="200" height="200"><defs><style type="text/css"></style></defs><path d="M1024 518.678261C1024 229.286957 794.713043 0 505.321739 0 229.286957 0 0 229.286957 0 518.678261 0 794.713043 229.286957 1024 505.321739 1024 794.713043 1024 1024 794.713043 1024 518.678261z" fill="#09BB07" p-id="2328"></path><path d="M251.547826 532.034783c-8.904348-8.904348-8.904348-24.486957-2.226087-33.391305l4.452174-4.452174c6.678261-8.904348 20.034783-11.130435 31.165217-4.452174l111.304348 84.591305c8.904348 6.678261 24.486957 6.678261 35.617392 0l311.652173-258.226087c8.904348-8.904348 24.486957-6.678261 33.391305 2.226087l-2.226087-2.226087c8.904348 8.904348 8.904348 22.26087 0 31.165217L429.634783 683.408696c-8.904348 8.904348-22.26087 8.904348-31.165218 0l-146.921739-151.373913z" fill="#FFFFFF" p-id="2329"></path></svg>