<?xml version="1.0" standalone="no"?><!DOCTYPE svg PUBLIC "-//W3C//DTD SVG 1.1//EN" "http://www.w3.org/Graphics/SVG/1.1/DTD/svg11.dtd"><svg t="1566546938499" class="icon" viewBox="0 0 1024 1024" version="1.1" xmlns="http://www.w3.org/2000/svg" p-id="6826" xmlns:xlink="http://www.w3.org/1999/xlink" width="200" height="200"><defs><style type="text/css"></style></defs><path d="M454.997333 853.276444a28.444444 28.444444 0 0 1 0 56.888889H255.772444A85.219556 85.219556 0 0 1 170.552889 824.888889V199.054222c0-47.104 38.115556-85.333333 85.219555-85.333333h346.339556c22.641778 0 44.373333 8.988444 60.359111 24.974222l165.774222 165.774222A85.333333 85.333333 0 0 1 853.333333 364.828444v147.057778a28.444444 28.444444 0 1 1-56.888889-0.056889V364.828444a28.672 28.672 0 0 0-8.362666-20.138666l-165.831111-165.717334a28.330667 28.330667 0 0 0-20.081778-8.362666H255.772444a28.444444 28.444444 0 0 0-28.330666 28.444444V824.888889a28.444444 28.444444 0 0 0 28.330666 28.444444h199.224889z" fill="#ffffff" p-id="6827"></path><path d="M483.328 682.666667H824.888889a28.330667 28.330667 0 0 1 0 56.661333H483.328a28.330667 28.330667 0 0 1 0-56.661333z" fill="#ffffff" p-id="6828"></path><path d="M654.108444 512.113778a28.444444 28.444444 0 0 1 28.444445 28.444444v341.333334a28.444444 28.444444 0 0 1-56.888889 0v-341.333334a28.444444 28.444444 0 0 1 28.444444-28.444444zM853.219556 398.222222h-227.555556a56.888889 56.888889 0 0 1-56.888889-56.888889V113.777778l56.888889 56.888889v170.666666h170.666667l56.888889 56.888889z" fill="#ffffff" p-id="6829"></path></svg>