<?xml version="1.0" standalone="no"?><!DOCTYPE svg PUBLIC "-//W3C//DTD SVG 1.1//EN" "http://www.w3.org/Graphics/SVG/1.1/DTD/svg11.dtd"><svg t="1572347104184" class="icon" viewBox="0 0 1024 1024" version="1.1" xmlns="http://www.w3.org/2000/svg" p-id="522" xmlns:xlink="http://www.w3.org/1999/xlink" width="200" height="200"><defs><style type="text/css"></style></defs><path d="M512 128c-213.333333 0-384 170.666667-384 384s170.666667 384 384 384 384-170.666667 384-384-170.666667-384-384-384z m0 725.333333c-187.733333 0-341.333333-153.6-341.333333-341.333333s153.6-341.333333 341.333333-341.333333 341.333333 153.6 341.333333 341.333333-153.6 341.333333-341.333333 341.333333z" p-id="523"></path><path d="M516.266667 294.4c-42.666667 0-76.8 12.8-102.4 38.4-25.6 25.6-34.133333 59.733333-34.133334 102.4H426.666667c0-29.866667 8.533333-51.2 21.333333-68.266667 12.8-21.333333 38.4-29.866667 68.266667-29.866666 25.6 0 42.666667 8.533333 59.733333 21.333333 12.8 12.8 21.333333 29.866667 21.333333 55.466667 0 17.066667-4.266667 34.133333-17.066666 46.933333l-21.333334 21.333333c-34.133333 29.866667-51.2 51.2-59.733333 68.266667-8.533333 17.066667-12.8 34.133333-12.8 51.2v12.8h46.933333v-12.8c0-17.066667 4.266667-29.866667 12.8-42.666667 4.266667-12.8 17.066667-21.333333 29.866667-34.133333 25.6-21.333333 42.666667-38.4 46.933333-46.933333 17.066667-21.333333 21.333333-42.666667 21.333334-68.266667 0-34.133333-12.8-64-34.133334-85.333333-25.6-21.333333-55.466667-29.866667-93.866666-29.866667z" p-id="524"></path><path d="M512 682.666667m-34.133333 0a34.133333 34.133333 0 1 0 68.266666 0 34.133333 34.133333 0 1 0-68.266666 0Z" fill="#000000" p-id="525"></path></svg>