<?xml version="1.0" standalone="no"?><!DOCTYPE svg PUBLIC "-//W3C//DTD SVG 1.1//EN" "http://www.w3.org/Graphics/SVG/1.1/DTD/svg11.dtd"><svg t="1566546997212" class="icon" viewBox="0 0 1027 1024" version="1.1" xmlns="http://www.w3.org/2000/svg" p-id="8409" xmlns:xlink="http://www.w3.org/1999/xlink" width="200.5859375" height="200"><defs><style type="text/css"></style></defs><path d="M1005.645809 922.080804l-145.234854-145.064989a473.244801 473.244801 0 0 0 101.919196-293.35742 481.143539 481.143539 0 1 0-186.002533 377.525689l145.234854 145.149922a59.452864 59.452864 0 1 0 84.083337-84.253202z m-522.33588-50.959598a387.632676 387.632676 0 1 1 387.292945-387.547744A388.312137 388.312137 0 0 1 483.309929 871.121206z m0 0l163.92004-433.156584H319.389888a45.693773 45.693773 0 0 0 2.54798 91.132748H644.681989a44.589648 44.589648 0 0 0 43.315659-45.60884 43.910187 43.910187 0 0 0-40.767679-45.523908z m0 0" p-id="8410"></path></svg>