<?xml version="1.0" standalone="no"?><!DOCTYPE svg PUBLIC "-//W3C//DTD SVG 1.1//EN" "http://www.w3.org/Graphics/SVG/1.1/DTD/svg11.dtd"><svg t="1566971579454" class="icon" viewBox="0 0 1024 1024" version="1.1" xmlns="http://www.w3.org/2000/svg" p-id="3226" xmlns:xlink="http://www.w3.org/1999/xlink" width="200" height="200"><defs><style type="text/css"></style></defs><path d="M204.8 56.832a51.2 51.2 0 0 0-51.2 51.2v819.2a51.2 51.2 0 0 0 51.2 51.2 51.2 51.2 0 0 0 51.2-51.2v-819.2a51.2 51.2 0 0 0-51.2-51.2z m665.6 274.944a72.704 72.704 0 0 0-72.704-72.704h-10.24a29.184 29.184 0 0 0-11.776 2.56c-20.992 9.216-99.328 32.256-174.592-92.672C546.304 77.312 483.84 51.2 434.688 45.568A71.68 71.68 0 0 0 358.4 118.272v429.568a72.704 72.704 0 0 0 72.704 72.704h97.792a128.512 128.512 0 0 1 106.496 55.296C665.6 716.8 716.8 773.632 768 773.632h29.696A72.704 72.704 0 0 0 870.4 701.44z" p-id="3227"></path></svg>